<svg width="23" height="16" viewBox="0 0 23 16" fill="none" xmlns="http://www.w3.org/2000/svg">
<rect width="23" height="16" fill="#1E1E1E"/>
<rect x="-27.5" y="-30.5" width="339" height="77" rx="24.5" fill="#FCFCFC"/>
<rect x="-4" y="-7" width="30" height="30" rx="5" fill="#E1E6F1"/>
<rect x="-3.5" y="-6.5" width="29" height="29" rx="4.5" stroke="#1F3E52" stroke-opacity="0.09"/>
<rect x="-27.5" y="-30.5" width="339" height="77" rx="24.5" stroke="#EEF1F7"/>
<rect x="-28.5" y="-30.853" width="340" height="78" rx="25" fill="#E1E1E1" style="mix-blend-mode:multiply"/>
<path d="M21.9905 0.8676C21.6 0.477076 20.9668 0.477076 20.5763 0.8676L8.01266 13.4312C7.62214 13.8218 6.98897 13.8218 6.59845 13.4312L1.99971 8.83251C1.60919 8.44198 0.97602 8.44198 0.585496 8.83251C0.194972 9.22303 0.194971 9.85619 0.585495 10.2467L5.18962 14.8425C6.36146 16.0122 8.25937 16.0114 9.43021 14.8407L21.9905 2.28181C22.3811 1.89129 22.3811 1.25812 21.9905 0.8676Z" fill="#243545" fill-opacity="0.68"/>
<rect x="-37.5" y="-152.5" width="359" height="831" rx="4.5" stroke="#9747FF" stroke-dasharray="10 5"/>
</svg>
