<svg width="4" height="19" viewBox="0 0 4 19" fill="none" xmlns="http://www.w3.org/2000/svg">
<path d="M3.76054 0.100098C3.9065 0.196943 3.95011 0.331885 3.94919 0.50584C3.94368 1.8089 3.96342 3.11241 3.93863 4.41501C3.9267 5.0429 3.83811 5.66941 3.7789 6.29593C3.7018 7.11705 3.61872 7.93817 3.53886 8.75929C3.45716 9.59878 3.37592 10.4378 3.29468 11.2773C3.21757 12.0741 3.13954 12.8709 3.06381 13.6677C3.03765 13.9421 2.92795 14.0509 2.65669 14.0518C2.22295 14.0532 1.78967 14.0532 1.35593 14.0518C1.09706 14.0509 0.973136 13.9444 0.947433 13.6847C0.856554 12.7603 0.771642 11.8354 0.681222 10.911C0.57841 9.85902 0.471008 8.80703 0.367277 7.75504C0.27594 6.83064 0.145129 5.90762 0.107493 4.98139C0.0547095 3.65631 0.070315 2.32801 0.0570045 1.00154C0.0551685 0.836308 0.0652662 0.670615 0.0542506 0.506299C0.042776 0.331426 0.0955591 0.196484 0.242434 0.100098H3.76054Z" fill="#F59939"/>
<path d="M0.389123 18.9001C0.242249 18.7945 0.202776 18.6513 0.204153 18.4728C0.211038 17.5498 0.206907 16.6263 0.207366 15.7028C0.207366 15.3916 0.299163 15.2984 0.609436 15.298C1.54301 15.2971 2.47658 15.2971 3.41061 15.298C3.71354 15.298 3.8058 15.3879 3.80626 15.69C3.80809 16.6254 3.80442 17.5608 3.80901 18.4966C3.80993 18.6692 3.76495 18.8069 3.61394 18.8996L0.389123 18.9001Z" fill="#F59939"/>
</svg>
