<svg width="21" height="19" viewBox="0 0 21 19" fill="none" xmlns="http://www.w3.org/2000/svg">
<path d="M20.0024 18.354C19.9327 18.1061 19.8795 17.8519 19.7905 17.6118C19.5764 17.0353 19.2228 16.578 18.6046 16.3557C18.953 15.9114 19.3816 15.6234 19.9618 15.5161C19.3801 15.3078 18.6306 15.3828 18.0468 15.6984C18.7119 13.2485 18.5952 10.9445 16.8854 8.87948C16.851 9.41383 16.8422 9.90443 16.7813 10.3883C16.7208 10.8731 16.6099 11.3517 16.388 11.7934C16.3688 11.7918 16.3495 11.7903 16.3302 11.7892C16.3302 11.6189 16.3365 11.4481 16.3292 11.2778C16.2927 10.4445 16.1901 9.62267 15.849 8.85032C15.3964 7.82641 14.6486 7.08739 13.633 6.62283C12.3122 6.01869 10.9165 5.63226 9.52955 5.21978C9.30769 5.15364 9.0853 5.09114 8.81396 5.0125C9.27435 5.99526 8.87073 6.91396 8.72959 7.86027C8.67178 7.63424 8.62595 7.41706 8.56033 7.20561C8.10098 5.72027 7.16144 4.65262 5.74902 3.99901C5.24852 3.76725 4.74751 3.53653 4.24649 3.30581C4.21264 3.29019 4.1767 3.27821 4.16264 3.27248C4.06369 3.87089 3.96578 4.46409 3.86734 5.05729C3.84599 5.05416 3.82516 5.05156 3.8038 5.04843C3.77308 4.69168 3.75433 4.33389 3.7085 3.97922C3.67048 3.68444 3.61527 3.39019 3.53819 3.10322C3.50538 2.98187 3.42153 2.84334 3.31894 2.7772C2.55387 2.28347 1.88359 1.6809 1.25394 1.02937C1.10499 0.875212 0.953953 0.722616 0.79719 0.575749C0.534704 0.329407 0.377941 0.354927 0.283155 0.695013C0.177431 1.07364 0.121185 1.46581 0.0446262 1.85277C0.0284805 1.93401 0.0165024 2.0163 0.00244141 2.09807V3.50164C0.0425434 3.81568 0.0753536 4.13077 0.123789 4.44378C0.375858 6.07546 0.897186 7.58997 2.05129 8.82636C2.36586 9.16332 2.36898 9.16905 2.78042 8.98625C3.41789 8.70293 4.05379 8.72116 4.69126 8.97896C4.76157 9.0076 4.82667 9.04979 4.94698 9.11384C4.14702 8.97687 3.50434 9.1352 2.97676 9.7711C3.53663 10.1862 4.06785 10.6034 4.62303 10.9856C5.60423 11.6611 6.66147 12.2074 7.73641 12.7163C8.6223 13.1355 9.55715 13.2147 10.518 13.0772C11.48 12.9397 12.4101 13.0741 13.3122 13.4167C13.6012 13.5266 13.8798 13.6631 14.1585 13.8058C13.12 13.6662 12.1471 13.785 11.2456 14.4328C11.4669 14.5531 11.6492 14.65 11.8294 14.7505C12.894 15.3453 13.8595 16.0848 14.8418 16.8009C15.2345 17.0874 15.6271 17.3827 16.1115 17.5066C16.1964 17.5285 16.2854 17.5311 16.4193 17.5488C16.3839 17.1056 16.375 16.69 16.3136 16.2822C16.112 14.9432 15.5777 13.7495 14.6954 12.7157C13.9184 11.8059 12.9585 11.1653 11.8372 10.7513C10.0337 10.0851 8.24732 9.37789 6.53752 8.49304C5.67037 8.04411 4.81781 7.57122 4.11056 6.88167C4.02358 6.79678 3.94963 6.69887 3.89338 6.57492C4.00796 6.6395 4.1215 6.7072 4.23764 6.76918C5.36414 7.3681 6.54689 7.83787 7.75047 8.25139C9.18634 8.74459 10.6311 9.21019 12.0742 9.68309C14.3835 10.4393 15.9537 11.959 16.7802 14.236C17.1052 15.1318 17.2041 16.065 17.1495 17.015C17.1463 17.0666 17.1495 17.1186 17.1495 17.1832C18.3244 17.1921 19.3785 17.4592 20.0024 18.5878C20.0024 18.5097 20.0024 18.4321 20.0024 18.354Z" fill="#0094D4"/>
</svg>
