<svg width="14" height="19" viewBox="0 0 14 19" fill="none" xmlns="http://www.w3.org/2000/svg">
<path d="M8.43216 0.100098C8.15633 2.56646 8.87458 4.78883 10.1166 6.87304C10.4507 7.43402 10.8363 7.96462 11.2165 8.49621C11.8877 9.43493 12.4796 10.4153 12.8465 11.5167C13.235 12.6832 13.3286 13.8581 12.9048 15.0394C12.6133 15.8517 12.1209 16.5298 11.4918 17.1089C10.6217 17.9104 9.60949 18.4753 8.45666 18.8923C8.50075 18.7845 8.53015 18.7105 8.56151 18.637C8.8883 17.8781 9.16021 17.103 9.29446 16.2828C9.45712 15.2883 9.31503 14.3441 8.83097 13.4613C8.57571 12.9953 8.29694 12.5416 8.01865 12.0889C7.37683 11.0454 6.92658 9.93271 6.80017 8.70541C6.75412 8.25565 6.74187 7.80245 6.71345 7.34093C6.70366 7.3424 6.6772 7.33946 6.66201 7.35073C5.87419 7.94062 5.18974 8.61918 4.80416 9.55007C4.34117 10.6676 4.44062 11.747 5.04031 12.7851C5.34897 13.3197 5.64539 13.8571 5.83254 14.4514C6.28623 15.8938 5.95601 17.1368 4.91048 18.2044C4.68118 18.4381 4.44062 18.6605 4.1932 18.9001C4.14617 18.5596 4.12265 18.248 4.05798 17.9457C3.90708 17.2382 3.4872 16.687 3.0002 16.176C2.60825 15.765 2.19425 15.3691 1.84688 14.9223C1.29668 14.2148 0.999777 13.3883 0.879742 12.4995C0.694055 11.1262 0.971851 9.82444 1.49119 8.56186C2.17808 6.89116 3.20941 5.44045 4.37399 4.07744C5.53711 2.71589 6.82859 1.48467 8.18131 0.315182C8.25725 0.250509 8.32389 0.172609 8.39542 0.100098C8.40767 0.100098 8.41991 0.100098 8.43216 0.100098Z" fill="#E8373D"/>
</svg>
